<svg xmlns="http://www.w3.org/2000/svg" width="1050" height="600" viewBox="0 0 1050 600"><rect width="1050" height="600" fill="white"/><text x="55" y="55" font-family="Arial" font-size="30" font-weight="700" fill="#162033">Final stress screen — P80 SOP</text><g font-family="Arial" font-size="16" fill="#404957"><text x="55" y="130">Supplier +2w</text><text x="55" y="190">Supplier +4w</text><text x="55" y="250">Supplier +6w</text><text x="55" y="310">Critical FAT</text><text x="55" y="370">Resources -20%</text><text x="55" y="430">Automation debug +35%</text><text x="55" y="490">Combined stress</text></g><g fill="#2f5d8a"><rect x="220" y="105" width="506" height="28"/><rect x="220" y="165" width="519" height="28"/><rect x="220" y="225" width="532" height="28"/><rect x="220" y="285" width="541" height="28"/><rect x="220" y="345" width="524" height="28"/><rect x="220" y="405" width="603" height="28" fill="#8c3d3d"/><rect x="220" y="465" width="636" height="28" fill="#8c3d3d"/></g><g font-family="Arial" font-size="16" font-weight="700" fill="#162033"><text x="738" y="126">726</text><text x="751" y="186">739</text><text x="764" y="246">752</text><text x="773" y="306">761</text><text x="756" y="366">744</text><text x="835" y="426">823</text><text x="868" y="486">856</text></g><text x="220" y="550" font-family="Arial" font-size="16" fill="#596579">Target+ baseline P80 = 713 days</text></svg>